  0
SECTION
  2
HEADER
  9
$ACADVER
  1
AC1009
  0
ENDSEC
  0
SECTION
  2
BLOCKS
  0
ENDSEC
  0
SECTION
  2
ENTITIES
  0
LINE
  8
CutLine
  6
CONTINUOUS
 62
8
 10
700.517004
 20
323.924838
 11
717.357797
 21
321.830155
  0
LINE
  8
CutLine
  6
CONTINUOUS
 62
8
 10
717.357797
 20
321.830155
 11
775.399233
 21
367.030252
  0
LINE
  8
CutLine
  6
CONTINUOUS
 62
8
 10
775.399233
 20
367.030252
 11
777.493917
 21
383.871045
  0
LINE
  8
CutLine
  6
CONTINUOUS
 62
8
 10
707.532296
 20
492.600897
 11
692.683448
 21
500.817449
  0
LINE
  8
CutLine
  6
CONTINUOUS
 62
8
 10
692.683448
 20
500.817449
 11
631.100786
 21
483.109782
  0
LINE
  8
CutLine
  6
CONTINUOUS
 62
8
 10
631.100786
 20
483.109782
 11
622.884234
 21
468.260934
  0
LINE
  8
CutLine
  6
CONTINUOUS
 62
8
 10
511.379171
 20
223.346410
 11
500.526739
 21
236.393429
  0
LINE
  8
CutLine
  6
CONTINUOUS
 62
8
 10
500.526739
 20
236.393429
 11
361.223346
 21
249.185076
  0
LINE
  8
CutLine
  6
CONTINUOUS
 62
8
 10
361.223346
 20
249.185076
 11
348.176327
 21
238.332643
  0
LINE
  8
CutLine
  6
CONTINUOUS
 62
8
 10
658.337308
 20
24.680549
 11
663.221331
 21
40.933128
  0
LINE
  8
CutLine
  6
CONTINUOUS
 62
8
 10
663.221331
 20
40.933128
 11
596.957116
 21
164.132622
  0
LINE
  8
CutLine
  6
CONTINUOUS
 62
8
 10
596.957116
 20
164.132622
 11
580.704538
 21
169.016645
  0
LINE
  8
CutLine
  6
CONTINUOUS
 62
8
 10
1161.988109
 20
368.260994
 11
1156.767694
 21
384.408665
  0
LINE
  8
CutLine
  6
CONTINUOUS
 62
8
 10
1156.767694
 20
384.408665
 11
1099.716676
 21
413.583533
  0
LINE
  8
CutLine
  6
CONTINUOUS
 62
8
 10
1099.716676
 20
413.583533
 11
1083.569006
 21
408.363119
  0
LINE
  8
CutLine
  6
CONTINUOUS
 62
8
 10
994.077493
 20
315.046028
 11
992.907860
 21
298.115820
  0
LINE
  8
CutLine
  6
CONTINUOUS
 62
8
 10
992.907860
 20
298.115820
 11
1041.217520
 21
242.635789
  0
LINE
  8
CutLine
  6
CONTINUOUS
 62
8
 10
1041.217520
 20
242.635789
 11
1058.147729
 21
241.466155
  0
LINE
  8
CutLine
  6
CONTINUOUS
 62
8
 10
466.123095
 20
426.044244
 11
469.680504
 21
409.450727
  0
LINE
  8
CutLine
  6
CONTINUOUS
 62
8
 10
469.680504
 20
409.450727
 11
558.087241
 21
352.258332
  0
LINE
  8
CutLine
  6
CONTINUOUS
 62
8
 10
558.087241
 20
352.258332
 11
574.680759
 21
355.815741
  0
LINE
  8
CutLine
  6
CONTINUOUS
 62
8
 10
289.335144
 20
321.019820
 11
306.301992
 21
321.374880
  0
LINE
  8
CutLine
  6
CONTINUOUS
 62
8
 10
306.301992
 20
321.374880
 11
379.181716
 21
397.370062
  0
LINE
  8
CutLine
  6
CONTINUOUS
 62
8
 10
379.181716
 20
397.370062
 11
378.826656
 21
414.336910
  0
LINE
  8
CutLine
  6
CONTINUOUS
 62
8
 10
63.430282
 20
12.000000
 11
75.430282
 21
0.000000
  0
LINE
  8
CutLine
  6
CONTINUOUS
 62
8
 10
75.430282
 20
0.000000
 11
148.995608
 21
0.000000
  0
LINE
  8
CutLine
  6
CONTINUOUS
 62
8
 10
148.995608
 20
0.000000
 11
160.995608
 21
12.000000
  0
LINE
  8
CutLine
  6
CONTINUOUS
 62
8
 10
160.995608
 20
12.000000
 11
170.408919
 21
26.742643
  0
LINE
  8
CutLine
  6
CONTINUOUS
 62
8
 10
170.408919
 20
26.742643
 11
139.071564
 21
191.657629
  0
LINE
  8
CutLine
  6
CONTINUOUS
 62
8
 10
139.071564
 20
191.657629
 11
125.042346
 21
201.206507
  0
LINE
  8
CutLine
  6
CONTINUOUS
 62
8
 10
125.042346
 20
201.206507
 11
109.916491
 21
193.511801
  0
LINE
  8
CutLine
  6
CONTINUOUS
 62
8
 10
109.916491
 20
193.511801
 11
55.744107
 21
27.152052
  0
LINE
  8
CutLine
  6
CONTINUOUS
 62
8
 10
55.744107
 20
27.152052
 11
63.430282
 21
12.000000
  0
LINE
  8
CutLine
  6
CONTINUOUS
 62
8
 10
68.427360
 20
255.907105
 11
80.427360
 21
243.907105
  0
LINE
  8
CutLine
  6
CONTINUOUS
 62
8
 10
80.427360
 20
243.907105
 11
153.992685
 21
243.907105
  0
LINE
  8
CutLine
  6
CONTINUOUS
 62
8
 10
153.992685
 20
243.907105
 11
165.992685
 21
255.907105
  0
LINE
  8
CutLine
  6
CONTINUOUS
 62
8
 10
165.992685
 20
255.907105
 11
177.049007
 21
270.204805
  0
LINE
  8
CutLine
  6
CONTINUOUS
 62
8
 10
177.049007
 20
270.204805
 11
122.551759
 21
1072.381590
  0
LINE
  8
CutLine
  6
CONTINUOUS
 62
8
 10
122.551759
 20
1072.381590
 11
102.639275
 21
1188.442909
  0
LINE
  8
CutLine
  6
CONTINUOUS
 62
8
 10
102.639275
 20
1188.442909
 11
86.359883
 21
1072.016867
  0
LINE
  8
CutLine
  6
CONTINUOUS
 62
8
 10
86.359883
 20
1072.016867
 11
56.931044
 21
269.856406
  0
LINE
  8
CutLine
  6
CONTINUOUS
 62
8
 10
56.931044
 20
269.856406
 11
68.427360
 21
255.907105
  0
LINE
  8
CutLine
  6
CONTINUOUS
 62
8
 10
940.086120
 20
293.087208
 11
952.641335
 21
304.505026
  0
LINE
  8
CutLine
  6
CONTINUOUS
 62
8
 10
952.641335
 20
304.505026
 11
957.631355
 21
409.680222
  0
LINE
  8
CutLine
  6
CONTINUOUS
 62
8
 10
957.631355
 20
409.680222
 11
946.213536
 21
422.235437
  0
LINE
  8
CutLine
  6
CONTINUOUS
 62
8
 10
826.463196
 20
456.518406
 11
812.813563
 21
446.434382
  0
LINE
  8
CutLine
  6
CONTINUOUS
 62
8
 10
812.813563
 20
446.434382
 11
792.030598
 21
308.097367
  0
LINE
  8
CutLine
  6
CONTINUOUS
 62
8
 10
792.030598
 20
308.097367
 11
802.114621
 21
294.447734
  0
LINE
  8
MountainLine
  6
CONTINUOUS
 62
5
 10
700.517004
 20
323.924838
 11
777.493917
 21
383.871045
  0
LINE
  8
CutLine
  6
CONTINUOUS
 62
8
 10
777.493917
 20
383.871045
 11
707.532296
 21
492.600897
  0
LINE
  8
MountainLine
  6
CONTINUOUS
 62
5
 10
707.532296
 20
492.600897
 11
622.884234
 21
468.260934
  0
LINE
  8
CutLine
  6
CONTINUOUS
 62
8
 10
622.884234
 20
468.260934
 11
700.517004
 21
323.924838
  0
LINE
  8
CutLine
  6
CONTINUOUS
 62
8
 10
580.704538
 20
169.016645
 11
511.379171
 21
223.346410
  0
LINE
  8
MountainLine
  6
CONTINUOUS
 62
5
 10
511.379171
 20
223.346410
 11
475.599908
 21
85.498159
  0
LINE
  8
MountainLine
  6
CONTINUOUS
 62
5
 10
475.599908
 20
85.498159
 11
580.704538
 21
169.016645
  0
LINE
  8
MountainLine
  6
CONTINUOUS
 62
5
 10
511.379171
 20
223.346410
 11
348.176327
 21
238.332643
  0
LINE
  8
CutLine
  6
CONTINUOUS
 62
8
 10
348.176327
 20
238.332643
 11
475.599908
 21
85.498159
  0
LINE
  8
CutLine
  6
CONTINUOUS
 62
8
 10
475.599908
 20
85.498159
 11
658.337308
 21
24.680549
  0
LINE
  8
MountainLine
  6
CONTINUOUS
 62
5
 10
658.337308
 20
24.680549
 11
580.704538
 21
169.016645
  0
LINE
  8
CutLine
  6
CONTINUOUS
 62
8
 10
1058.147729
 20
241.466155
 11
1161.988109
 21
368.260994
  0
LINE
  8
MountainLine
  6
CONTINUOUS
 62
5
 10
1161.988109
 20
368.260994
 11
1083.569006
 21
408.363119
  0
LINE
  8
CutLine
  6
CONTINUOUS
 62
8
 10
1083.569006
 20
408.363119
 11
994.077493
 21
315.046028
  0
LINE
  8
MountainLine
  6
CONTINUOUS
 62
5
 10
994.077493
 20
315.046028
 11
1058.147729
 21
241.466155
  0
LINE
  8
MountainLine
  6
CONTINUOUS
 62
5
 10
466.123095
 20
426.044244
 11
574.680759
 21
355.815741
  0
LINE
  8
CutLine
  6
CONTINUOUS
 62
8
 10
574.680759
 20
355.815741
 11
325.217155
 21
1255.016159
  0
LINE
  8
MountainLine
  6
CONTINUOUS
 62
5
 10
325.217155
 20
1255.016159
 11
466.123095
 21
426.044244
  0
LINE
  8
CutLine
  6
CONTINUOUS
 62
8
 10
378.826656
 20
414.336910
 11
466.123095
 21
426.044244
  0
LINE
  8
MountainLine
  6
CONTINUOUS
 62
5
 10
325.217155
 20
1255.016159
 11
378.826656
 21
414.336910
  0
LINE
  8
CutLine
  6
CONTINUOUS
 62
8
 10
325.217155
 20
1255.016159
 11
289.335144
 21
321.019820
  0
LINE
  8
MountainLine
  6
CONTINUOUS
 62
5
 10
289.335144
 20
321.019820
 11
378.826656
 21
414.336910
  0
LINE
  8
MountainLine
  6
CONTINUOUS
 62
5
 10
63.430282
 20
12.000000
 11
160.995608
 21
12.000000
  0
LINE
  8
MountainLine
  6
CONTINUOUS
 62
5
 10
160.995608
 20
12.000000
 11
125.042346
 21
201.206507
  0
LINE
  8
MountainLine
  6
CONTINUOUS
 62
5
 10
125.042346
 20
201.206507
 11
63.430282
 21
12.000000
  0
LINE
  8
MountainLine
  6
CONTINUOUS
 62
5
 10
68.427360
 20
255.907105
 11
165.992685
 21
255.907105
  0
LINE
  8
MountainLine
  6
CONTINUOUS
 62
5
 10
165.992685
 20
255.907105
 11
102.639275
 21
1188.442909
  0
LINE
  8
MountainLine
  6
CONTINUOUS
 62
5
 10
102.639275
 20
1188.442909
 11
68.427360
 21
255.907105
  0
LINE
  8
CutLine
  6
CONTINUOUS
 62
8
 10
802.114621
 20
294.447734
 11
940.086120
 21
293.087208
  0
LINE
  8
MountainLine
  6
CONTINUOUS
 62
5
 10
940.086120
 20
293.087208
 11
946.213536
 21
422.235437
  0
LINE
  8
CutLine
  6
CONTINUOUS
 62
8
 10
946.213536
 20
422.235437
 11
826.463196
 21
456.518406
  0
LINE
  8
MountainLine
  6
CONTINUOUS
 62
5
 10
826.463196
 20
456.518406
 11
802.114621
 21
294.447734
  0
ENDSEC
  0
EOF
